<svg id="clouds" xmlns="http://www.w3.org/2000/svg" xmlns:xlink="http://www.w3.org/1999/xlink" width="1440" height="692.311" viewBox="0 0 1440 692.311">
  <defs>
    <linearGradient id="linear-gradient" x1="0.5" y1="1" x2="0.5" gradientUnits="objectBoundingBox">
      <stop offset="0" stop-color="#cddce8"/>
      <stop offset="1" stop-color="#b9d7db"/>
    </linearGradient>
    <clipPath id="clip-path">
      <rect id="Rectangle_5" data-name="Rectangle 5" width="1440" height="692.311" fill="none"/>
    </clipPath>
  </defs>
  <g id="Group_94" data-name="Group 94" transform="translate(465.951 391.917)">
    <path id="Path_90" data-name="Path 90" d="M336.519,312.352a17.873,17.873,0,0,1,17.891-8.99,12.32,12.32,0,0,1,19.421-5.854,20.723,20.723,0,0,1,40.15,2.6,15.667,15.667,0,0,1,24.955,12.248Z" transform="translate(-336.519 -283.049)" fill="#fff"/>
    <path id="Path_91" data-name="Path 91" d="M336.519,315.352a17.874,17.874,0,0,1,17.891-8.99,12.32,12.32,0,0,1,19.421-5.854,20.723,20.723,0,0,1,40.15,2.6,15.667,15.667,0,0,1,24.955,12.248Z" transform="translate(-336.519 -281.895)" fill="url(#linear-gradient)"/>
  </g>
  <g id="Group_93" data-name="Group 93" transform="translate(1140.902 281.775)">
    <path id="Path_88" data-name="Path 88" d="M823.984,232.8a17.876,17.876,0,0,1,17.892-8.99,12.32,12.32,0,0,1,19.421-5.854,20.724,20.724,0,0,1,40.15,2.6A15.667,15.667,0,0,1,926.4,232.8Z" transform="translate(-823.984 -203.502)" fill="#fff"/>
    <path id="Path_89" data-name="Path 89" d="M823.984,235.8a17.876,17.876,0,0,1,17.892-8.99,12.32,12.32,0,0,1,19.421-5.854,20.724,20.724,0,0,1,40.15,2.6A15.667,15.667,0,0,1,926.4,235.8Z" transform="translate(-823.984 -202.348)" fill="url(#linear-gradient)"/>
  </g>
  <g id="Group_92" data-name="Group 92" transform="translate(126.584 85.093)">
    <path id="Path_86" data-name="Path 86" d="M330.213,129.771A41.636,41.636,0,0,0,288.5,108.812a28.724,28.724,0,0,0-45.278-13.651,48.319,48.319,0,0,0-93.612,6.054,36.533,36.533,0,0,0-58.186,28.556Z" transform="translate(-91.421 -61.454)" fill="#fff"/>
    <path id="Path_87" data-name="Path 87" d="M330.213,134.477A41.651,41.651,0,0,0,288.5,113.516a28.724,28.724,0,0,0-45.278-13.65,48.319,48.319,0,0,0-93.612,6.054,36.532,36.532,0,0,0-58.186,28.558Z" transform="translate(-91.421 -59.644)" fill="#b8d4d8"/>
  </g>
  <g id="Group_97" data-name="Group 97" clip-path="url(#clip-path)">
    <g id="Group_95" data-name="Group 95" transform="translate(-238.803 174.716)">
      <path id="Path_92" data-name="Path 92" d="M-172.47,246.465a49.242,49.242,0,0,1,32.85-28.734,49.367,49.367,0,0,1,58.2,28.547,36.746,36.746,0,0,1,25.062-22.856,36.778,36.778,0,0,1,36.108,10.164,49.333,49.333,0,0,1,54.569-22.132,69.1,69.1,0,0,1,132.972-37.306,49.389,49.389,0,0,1,88.147,27.586c.6-.192,1.2-.372,1.821-.537a36.805,36.805,0,0,1,45.033,26.092,37.338,37.338,0,0,1,.983,5.162,69.093,69.093,0,0,1,116.286,14.014Z" transform="translate(172.47 -126.182)" fill="#fff"/>
      <path id="Path_93" data-name="Path 93" d="M-172.47,252.359a49.245,49.245,0,0,1,32.85-28.734,49.367,49.367,0,0,1,58.2,28.549,36.751,36.751,0,0,1,25.062-22.857,36.773,36.773,0,0,1,36.108,10.167,49.34,49.34,0,0,1,54.569-22.136,69.1,69.1,0,0,1,132.972-37.3,49.389,49.389,0,0,1,88.147,27.586c.6-.191,1.2-.372,1.821-.537a36.8,36.8,0,0,1,45.033,26.093,37.378,37.378,0,0,1,.983,5.159,69.1,69.1,0,0,1,116.286,14.014Z" transform="translate(172.47 -123.914)" fill="#b8d4d8"/>
    </g>
    <g id="Group_96" data-name="Group 96" transform="translate(1131.441 135.858)">
      <path id="Path_94" data-name="Path 94" d="M1243.041,184.643a35.5,35.5,0,0,0-65.5-.13,26.472,26.472,0,0,0-44-9.132,35.48,35.48,0,0,0-39.255-15.92,49.711,49.711,0,0,0-95.658-26.838,35.53,35.53,0,0,0-63.411,19.843q-.646-.206-1.31-.384a26.475,26.475,0,0,0-32.4,18.771,26.946,26.946,0,0,0-.708,3.711,49.7,49.7,0,0,0-83.653,10.079Z" transform="translate(-817.151 -98.118)" fill="#fff"/>
      <path id="Path_95" data-name="Path 95" d="M1243.041,188.885a35.5,35.5,0,0,0-65.5-.133,26.471,26.471,0,0,0-44-9.13,35.484,35.484,0,0,0-39.255-15.922,49.71,49.71,0,0,0-95.658-26.837,35.529,35.529,0,0,0-63.411,19.843q-.646-.206-1.31-.384a26.476,26.476,0,0,0-32.4,18.771,26.905,26.905,0,0,0-.708,3.711,49.7,49.7,0,0,0-83.653,10.08Z" transform="translate(-817.151 -96.487)" fill="url(#linear-gradient)"/>
    </g>
  </g>
</svg>
