<?xml version="1.0" encoding="UTF-8"?>
<svg xmlns="http://www.w3.org/2000/svg" xmlns:xlink="http://www.w3.org/1999/xlink" version="1.1" viewBox="0 0 192.3 192.3">
  <defs>
    <style>
      .cls-1 {
        fill: url(#linear-gradient-3);
      }

      .cls-2 {
        fill: url(#linear-gradient-2);
      }

      .cls-3 {
        fill: url(#linear-gradient);
      }

      .cls-4 {
        fill: url(#linear-gradient-4);
        filter: url(#drop-shadow-1);
      }

      .cls-5 {
        fill: url(#linear-gradient-6);
        filter: url(#drop-shadow-3);
      }

      .cls-6 {
        fill: url(#linear-gradient-5);
        filter: url(#drop-shadow-2);
      }

      .cls-7 {
        opacity: .4;
      }
    </style>
    <linearGradient id="linear-gradient" x1="-83.7" y1="299.7" x2="57.8" y2="158.2" gradientTransform="translate(119.8 335.8) scale(1 -1)" gradientUnits="userSpaceOnUse">
      <stop offset="0" stop-color="#db9125"/>
      <stop offset="0" stop-color="#db9326"/>
      <stop offset="0" stop-color="#e8b743"/>
      <stop offset="0" stop-color="#f2d35a"/>
      <stop offset=".1" stop-color="#f9e76b"/>
      <stop offset=".2" stop-color="#fdf374"/>
      <stop offset=".2" stop-color="#fff778"/>
      <stop offset=".3" stop-color="#e9c24a"/>
      <stop offset=".3" stop-color="#d99a26"/>
      <stop offset=".4" stop-color="#ca8e23"/>
      <stop offset=".4" stop-color="#b67d20"/>
      <stop offset=".4" stop-color="#aa741e"/>
      <stop offset=".5" stop-color="#a7711e"/>
      <stop offset=".5" stop-color="#ab7622"/>
      <stop offset=".6" stop-color="#b8852e"/>
      <stop offset=".6" stop-color="#cd9e42"/>
      <stop offset=".7" stop-color="#eac05e"/>
      <stop offset=".7" stop-color="#f6ce69"/>
      <stop offset=".7" stop-color="#f3c862"/>
      <stop offset=".8" stop-color="#eaba4f"/>
      <stop offset=".8" stop-color="#dda230"/>
      <stop offset=".9" stop-color="#d99a26"/>
      <stop offset="1" stop-color="#f6ce69"/>
    </linearGradient>
    <linearGradient id="linear-gradient-2" x1="61.9" y1="327.7" x2="-72" y2="193.9" gradientTransform="translate(121.3 337.3) scale(1 -1)" gradientUnits="userSpaceOnUse">
      <stop offset="0" stop-color="#db9125"/>
      <stop offset="0" stop-color="#db9326"/>
      <stop offset="0" stop-color="#e8b743"/>
      <stop offset="0" stop-color="#f2d35a"/>
      <stop offset=".1" stop-color="#f9e76b"/>
      <stop offset=".2" stop-color="#fdf374"/>
      <stop offset=".2" stop-color="#fff778"/>
      <stop offset=".3" stop-color="#e9c24a"/>
      <stop offset=".3" stop-color="#d99a26"/>
      <stop offset=".4" stop-color="#ca8e23"/>
      <stop offset=".4" stop-color="#b67d20"/>
      <stop offset=".4" stop-color="#aa741e"/>
      <stop offset=".5" stop-color="#a7711e"/>
      <stop offset=".5" stop-color="#ab7622"/>
      <stop offset=".6" stop-color="#b8852e"/>
      <stop offset=".6" stop-color="#cd9e42"/>
      <stop offset=".7" stop-color="#eac05e"/>
      <stop offset=".7" stop-color="#f6ce69"/>
      <stop offset=".7" stop-color="#f3c862"/>
      <stop offset=".8" stop-color="#eaba4f"/>
      <stop offset=".8" stop-color="#dda230"/>
      <stop offset=".9" stop-color="#d99a26"/>
      <stop offset="1" stop-color="#f6ce69"/>
    </linearGradient>
    <linearGradient id="linear-gradient-3" x1="-100.2" y1="316.2" x2="41.4" y2="174.6" gradientTransform="translate(127.3 343.3) scale(1 -1)" gradientUnits="userSpaceOnUse">
      <stop offset="0" stop-color="#db9125"/>
      <stop offset="0" stop-color="#db9326"/>
      <stop offset="0" stop-color="#e8b743"/>
      <stop offset="0" stop-color="#f2d35a"/>
      <stop offset=".1" stop-color="#f9e76b"/>
      <stop offset=".2" stop-color="#fdf374"/>
      <stop offset=".2" stop-color="#fff778"/>
      <stop offset=".3" stop-color="#e9c24a"/>
      <stop offset=".3" stop-color="#d99a26"/>
      <stop offset=".4" stop-color="#ca8e23"/>
      <stop offset=".4" stop-color="#b67d20"/>
      <stop offset=".4" stop-color="#aa741e"/>
      <stop offset=".5" stop-color="#a7711e"/>
      <stop offset=".5" stop-color="#ab7622"/>
      <stop offset=".6" stop-color="#b8852e"/>
      <stop offset=".6" stop-color="#cd9e42"/>
      <stop offset=".7" stop-color="#eac05e"/>
      <stop offset=".7" stop-color="#f6ce69"/>
      <stop offset=".7" stop-color="#f3c862"/>
      <stop offset=".8" stop-color="#eaba4f"/>
      <stop offset=".8" stop-color="#dda230"/>
      <stop offset=".9" stop-color="#d99a26"/>
      <stop offset="1" stop-color="#f6ce69"/>
    </linearGradient>
    <linearGradient id="linear-gradient-4" x1="14.2" y1="96.7" x2="179" y2="96.7" gradientUnits="userSpaceOnUse">
      <stop offset="0" stop-color="#db9125"/>
      <stop offset="0" stop-color="#db9326"/>
      <stop offset="0" stop-color="#e8b743"/>
      <stop offset="0" stop-color="#f2d35a"/>
      <stop offset=".1" stop-color="#f9e76b"/>
      <stop offset=".2" stop-color="#fdf374"/>
      <stop offset=".2" stop-color="#fff778"/>
      <stop offset=".3" stop-color="#e9c24a"/>
      <stop offset=".3" stop-color="#d99a26"/>
      <stop offset=".4" stop-color="#ca8e23"/>
      <stop offset=".4" stop-color="#b67d20"/>
      <stop offset=".4" stop-color="#aa741e"/>
      <stop offset=".5" stop-color="#a7711e"/>
      <stop offset=".5" stop-color="#ab7622"/>
      <stop offset=".6" stop-color="#b8852e"/>
      <stop offset=".6" stop-color="#cd9e42"/>
      <stop offset=".7" stop-color="#eac05e"/>
      <stop offset=".7" stop-color="#f6ce69"/>
      <stop offset=".7" stop-color="#f3c862"/>
      <stop offset=".8" stop-color="#eaba4f"/>
      <stop offset=".8" stop-color="#dda230"/>
      <stop offset=".9" stop-color="#d99a26"/>
      <stop offset="1" stop-color="#f6ce69"/>
    </linearGradient>
    <filter id="drop-shadow-1" x="12" y="12" width="172" height="172" filterUnits="userSpaceOnUse">
      <feOffset dx="1" dy="1"/>
      <feGaussianBlur result="blur" stdDeviation="1"/>
      <feFlood flood-color="#000" flood-opacity="1"/>
      <feComposite in2="blur" operator="in"/>
      <feComposite in="SourceGraphic"/>
    </filter>
    <linearGradient id="linear-gradient-5" x1="-44" y1="334.1" x2="-103.3" y2="252.8" gradientTransform="translate(180 374.4) scale(1 -1)" gradientUnits="userSpaceOnUse">
      <stop offset="0" stop-color="#db9125"/>
      <stop offset="0" stop-color="#db9326"/>
      <stop offset="0" stop-color="#e8b743"/>
      <stop offset="0" stop-color="#f2d35a"/>
      <stop offset=".1" stop-color="#f9e76b"/>
      <stop offset=".2" stop-color="#fdf374"/>
      <stop offset=".2" stop-color="#fff778"/>
      <stop offset=".3" stop-color="#e9c24a"/>
      <stop offset=".3" stop-color="#d99a26"/>
      <stop offset=".4" stop-color="#ca8e23"/>
      <stop offset=".4" stop-color="#b67d20"/>
      <stop offset=".4" stop-color="#aa741e"/>
      <stop offset=".5" stop-color="#a7711e"/>
      <stop offset=".5" stop-color="#ab7622"/>
      <stop offset=".6" stop-color="#b8852e"/>
      <stop offset=".6" stop-color="#cd9e42"/>
      <stop offset=".7" stop-color="#eac05e"/>
      <stop offset=".7" stop-color="#f6ce69"/>
      <stop offset=".7" stop-color="#f3c862"/>
      <stop offset=".8" stop-color="#eaba4f"/>
      <stop offset=".8" stop-color="#dda230"/>
      <stop offset=".9" stop-color="#d99a26"/>
      <stop offset="1" stop-color="#f6ce69"/>
    </linearGradient>
    <filter id="drop-shadow-2" x="52" y="30" width="109" height="140" filterUnits="userSpaceOnUse">
      <feOffset dx="4" dy="4"/>
      <feGaussianBlur result="blur-2" stdDeviation="4"/>
      <feFlood flood-color="#000" flood-opacity="1"/>
      <feComposite in2="blur-2" operator="in"/>
      <feComposite in="SourceGraphic"/>
    </filter>
    <linearGradient id="linear-gradient-6" x1="-111.7" y1="309.3" x2="-52.1" y2="236.9" gradientTransform="translate(180 374.4) scale(1 -1)" gradientUnits="userSpaceOnUse">
      <stop offset="0" stop-color="#db9125"/>
      <stop offset="0" stop-color="#db9326"/>
      <stop offset="0" stop-color="#e8b743"/>
      <stop offset="0" stop-color="#f2d35a"/>
      <stop offset=".1" stop-color="#f9e76b"/>
      <stop offset=".2" stop-color="#fdf374"/>
      <stop offset=".2" stop-color="#fff778"/>
      <stop offset=".3" stop-color="#e9c24a"/>
      <stop offset=".3" stop-color="#d99a26"/>
      <stop offset=".4" stop-color="#ca8e23"/>
      <stop offset=".4" stop-color="#b67d20"/>
      <stop offset=".4" stop-color="#aa741e"/>
      <stop offset=".5" stop-color="#a7711e"/>
      <stop offset=".5" stop-color="#ab7622"/>
      <stop offset=".6" stop-color="#b8852e"/>
      <stop offset=".6" stop-color="#cd9e42"/>
      <stop offset=".7" stop-color="#eac05e"/>
      <stop offset=".7" stop-color="#f6ce69"/>
      <stop offset=".7" stop-color="#f3c862"/>
      <stop offset=".8" stop-color="#eaba4f"/>
      <stop offset=".8" stop-color="#dda230"/>
      <stop offset=".9" stop-color="#d99a26"/>
      <stop offset="1" stop-color="#f6ce69"/>
    </linearGradient>
    <filter id="drop-shadow-3" x="57" y="35" width="93" height="125" filterUnits="userSpaceOnUse">
      <feOffset dx="1" dy="1"/>
      <feGaussianBlur result="blur-3" stdDeviation="1"/>
      <feFlood flood-color="#000" flood-opacity=".2"/>
      <feComposite in2="blur-3" operator="in"/>
      <feComposite in="SourceGraphic"/>
    </filter>
  </defs>
  <!-- Generator: Adobe Illustrator 28.7.1, SVG Export Plug-In . SVG Version: 1.2.0 Build 142)  -->
  <g>
    <g id="Layer_1">
      <g>
        <path class="cls-3" d="M96.2,0C97.7,0,99.3,0,100.9.1c1.6,0,3.1.2,4.7.3s3.1.3,4.7.6c1.6.2,3.1.5,4.7.8s3.1.7,4.6,1,3,.8,4.5,1.3c1.5.5,3,1,4.5,1.5s2.9,1.1,4.4,1.7c1.5.6,2.9,1.2,4.3,1.9s2.8,1.4,4.2,2.1c1.4.7,2.8,1.5,4.1,2.3,1.3.8,2.7,1.7,4,2.5s2.6,1.8,3.9,2.7c1.3.9,2.5,1.9,3.7,2.9,1.2,1,2.4,2,3.6,3.1,1.2,1.1,2.3,2.1,3.4,3.3,1.1,1.1,2.2,2.3,3.3,3.4s2.1,2.4,3.1,3.6,2,2.5,2.9,3.7c.9,1.3,1.8,2.6,2.7,3.9.9,1.3,1.7,2.6,2.5,4,.8,1.3,1.6,2.7,2.3,4.1.7,1.4,1.4,2.8,2.1,4.2s1.3,2.9,1.9,4.3,1.2,2.9,1.7,4.4c.5,1.5,1,3,1.5,4.5.5,1.5.9,3,1.3,4.5s.7,3.1,1,4.6c.3,1.5.6,3.1.8,4.7.2,1.6.4,3.1.6,4.7.2,1.6.3,3.1.3,4.7,0,1.6.1,3.1.1,4.7s0,3.1-.1,4.7c0,1.6-.2,3.1-.3,4.7-.2,1.6-.3,3.1-.6,4.7-.2,1.6-.5,3.1-.8,4.7-.3,1.5-.7,3.1-1,4.6-.4,1.5-.8,3-1.3,4.5-.5,1.5-1,3-1.5,4.5s-1.1,2.9-1.7,4.4-1.2,2.9-1.9,4.3-1.4,2.8-2.1,4.2c-.7,1.4-1.5,2.8-2.3,4.1-.8,1.3-1.7,2.7-2.5,4-.9,1.3-1.8,2.6-2.7,3.9-.9,1.3-1.9,2.5-2.9,3.7-1,1.2-2,2.4-3.1,3.6s-2.1,2.3-3.3,3.4c-1.1,1.1-2.3,2.2-3.4,3.3-1.2,1.1-2.4,2.1-3.6,3.1-1.2,1-2.5,2-3.7,2.9-1.3.9-2.6,1.8-3.9,2.7s-2.6,1.7-4,2.5c-1.3.8-2.7,1.6-4.1,2.3-1.4.7-2.8,1.4-4.2,2.1-1.4.7-2.9,1.3-4.3,1.9-1.5.6-2.9,1.2-4.4,1.7-1.5.5-3,1-4.5,1.5-1.5.5-3,.9-4.5,1.3-1.5.4-3.1.7-4.6,1s-3.1.6-4.7.8c-1.6.2-3.1.4-4.7.6s-3.1.3-4.7.3c-1.6,0-3.1.1-4.7.1s-3.1,0-4.7-.1c-1.6,0-3.1-.2-4.7-.3-1.6-.2-3.1-.3-4.7-.6-1.6-.2-3.1-.5-4.7-.8s-3.1-.7-4.6-1c-1.5-.4-3-.8-4.5-1.3-1.5-.5-3-1-4.5-1.5-1.5-.5-2.9-1.1-4.4-1.7-1.5-.6-2.9-1.2-4.3-1.9-1.4-.7-2.8-1.4-4.2-2.1-1.4-.7-2.8-1.5-4.1-2.3-1.3-.8-2.7-1.7-4-2.5-1.3-.9-2.6-1.8-3.9-2.7-1.3-.9-2.5-1.9-3.7-2.9-1.2-1-2.4-2-3.6-3.1-1.2-1.1-2.3-2.1-3.4-3.3-1.1-1.1-2.2-2.3-3.3-3.4s-2.1-2.4-3.1-3.6c-1-1.2-2-2.5-2.9-3.7s-1.8-2.6-2.7-3.9c-.9-1.3-1.7-2.6-2.5-4-.8-1.3-1.6-2.7-2.3-4.1-.7-1.4-1.4-2.8-2.1-4.2-.7-1.4-1.3-2.9-1.9-4.3-.6-1.5-1.2-2.9-1.7-4.4s-1-3-1.5-4.5c-.5-1.5-.9-3-1.3-4.5-.4-1.5-.7-3.1-1-4.6-.3-1.5-.6-3.1-.8-4.7-.2-1.6-.4-3.1-.6-4.7-.2-1.6-.3-3.1-.3-4.7C0,99.3,0,97.7,0,96.2s0-3.1.1-4.7c0-1.6.2-3.1.3-4.7.2-1.6.3-3.1.6-4.7.2-1.6.5-3.1.8-4.7.3-1.5.7-3.1,1-4.6.4-1.5.8-3,1.3-4.5s1-3,1.5-4.5,1.1-2.9,1.7-4.4c.6-1.5,1.2-2.9,1.9-4.3.7-1.4,1.4-2.8,2.1-4.2.7-1.4,1.5-2.8,2.3-4.1.8-1.3,1.7-2.7,2.5-4,.9-1.3,1.8-2.6,2.7-3.9.9-1.3,1.9-2.5,2.9-3.7,1-1.2,2-2.4,3.1-3.6s2.1-2.3,3.3-3.4c1.1-1.1,2.3-2.2,3.4-3.3,1.2-1.1,2.4-2.1,3.6-3.1,1.2-1,2.5-2,3.7-2.9,1.3-.9,2.6-1.8,3.9-2.7,1.3-.9,2.6-1.7,4-2.5,1.3-.8,2.7-1.6,4.1-2.3,1.4-.7,2.8-1.4,4.2-2.1s2.9-1.3,4.3-1.9c1.5-.6,2.9-1.2,4.4-1.7,1.5-.5,3-1,4.5-1.5,1.5-.5,3-.9,4.5-1.3,1.5-.4,3.1-.7,4.6-1s3.1-.6,4.7-.8c1.6-.2,3.1-.4,4.7-.6s3.1-.3,4.7-.3C93,0,94.6,0,96.2,0Z"/>
        <path class="cls-2" d="M96.4,1.5c1.6,0,3.1,0,4.7.1s3.1.2,4.6.3c1.5.2,3.1.3,4.6.6s3.1.5,4.6.8,3,.6,4.5,1c1.5.4,3,.8,4.5,1.2s3,.9,4.4,1.5c1.5.5,2.9,1.1,4.3,1.7,1.4.6,2.9,1.2,4.3,1.9,1.4.7,2.8,1.4,4.2,2.1,1.4.7,2.7,1.5,4.1,2.3,1.3.8,2.6,1.6,3.9,2.5,1.3.9,2.6,1.8,3.8,2.7,1.2.9,2.5,1.9,3.7,2.9,1.2,1,2.4,2,3.5,3s2.3,2.1,3.4,3.2c1.1,1.1,2.2,2.2,3.2,3.4,1,1.2,2.1,2.3,3,3.5,1,1.2,1.9,2.4,2.9,3.7.9,1.2,1.8,2.5,2.7,3.8.9,1.3,1.7,2.6,2.5,3.9.8,1.3,1.6,2.7,2.3,4.1.7,1.4,1.4,2.8,2.1,4.2.7,1.4,1.3,2.8,1.9,4.3.6,1.4,1.2,2.9,1.7,4.3.5,1.5,1,2.9,1.5,4.4.5,1.5.9,3,1.2,4.5.4,1.5.7,3,1,4.5.3,1.5.6,3.1.8,4.6.2,1.5.4,3.1.6,4.6.2,1.5.3,3.1.3,4.6,0,1.6.1,3.1.1,4.7,0,1.6,0,3.1-.1,4.7,0,1.6-.2,3.1-.3,4.6-.2,1.5-.3,3.1-.6,4.6-.2,1.5-.5,3.1-.8,4.6-.3,1.5-.6,3-1,4.5-.4,1.5-.8,3-1.2,4.5-.5,1.5-.9,3-1.5,4.4-.5,1.5-1.1,2.9-1.7,4.3-.6,1.4-1.2,2.9-1.9,4.3-.7,1.4-1.4,2.8-2.1,4.2-.7,1.4-1.5,2.7-2.3,4.1-.8,1.3-1.6,2.6-2.5,3.9-.9,1.3-1.8,2.6-2.7,3.8-.9,1.2-1.9,2.5-2.9,3.7-1,1.2-2,2.4-3,3.5s-2.1,2.3-3.2,3.4c-1.1,1.1-2.2,2.2-3.4,3.2-1.2,1-2.3,2.1-3.5,3-1.2,1-2.4,1.9-3.7,2.9-1.2.9-2.5,1.8-3.8,2.7s-2.6,1.7-3.9,2.5c-1.3.8-2.7,1.6-4.1,2.3-1.4.7-2.8,1.4-4.2,2.1-1.4.7-2.8,1.3-4.3,1.9-1.4.6-2.9,1.2-4.3,1.7s-2.9,1-4.4,1.5c-1.5.5-3,.9-4.5,1.2-1.5.4-3,.7-4.5,1s-3.1.6-4.6.8c-1.5.2-3.1.4-4.6.6-1.5.2-3.1.3-4.6.3-1.6,0-3.1.1-4.7.1-1.6,0-3.1,0-4.7-.1s-3.1-.2-4.6-.3c-1.5-.2-3.1-.3-4.6-.6-1.5-.2-3.1-.5-4.6-.8-1.5-.3-3-.6-4.5-1-1.5-.4-3-.8-4.5-1.2-1.5-.5-3-.9-4.4-1.5-1.5-.5-2.9-1.1-4.3-1.7s-2.9-1.2-4.3-1.9c-1.4-.7-2.8-1.4-4.2-2.1-1.4-.7-2.7-1.5-4.1-2.3-1.3-.8-2.6-1.6-3.9-2.5s-2.6-1.8-3.8-2.7c-1.2-.9-2.5-1.9-3.7-2.9-1.2-1-2.4-2-3.5-3-1.2-1-2.3-2.1-3.4-3.2-1.1-1.1-2.2-2.2-3.2-3.4-1-1.2-2.1-2.3-3-3.5-1-1.2-1.9-2.4-2.9-3.7s-1.8-2.5-2.7-3.8c-.9-1.3-1.7-2.6-2.5-3.9-.8-1.3-1.6-2.7-2.3-4.1-.7-1.4-1.4-2.8-2.1-4.2-.7-1.4-1.3-2.8-1.9-4.3-.6-1.4-1.2-2.9-1.7-4.3s-1-2.9-1.5-4.4c-.5-1.5-.9-3-1.2-4.5-.4-1.5-.7-3-1-4.5-.3-1.5-.6-3.1-.8-4.6-.2-1.5-.4-3.1-.6-4.6-.2-1.5-.3-3.1-.3-4.6,0-1.6-.1-3.1-.1-4.7s0-3.1.1-4.7c0-1.6.2-3.1.3-4.6.2-1.5.3-3.1.6-4.6s.5-3.1.8-4.6c.3-1.5.6-3,1-4.5.4-1.5.8-3,1.2-4.5.5-1.5.9-3,1.5-4.4.5-1.5,1.1-2.9,1.7-4.3.6-1.4,1.2-2.9,1.9-4.3.7-1.4,1.4-2.8,2.1-4.2.7-1.4,1.5-2.7,2.3-4.1.8-1.3,1.6-2.6,2.5-3.9s1.8-2.6,2.7-3.8,1.9-2.5,2.9-3.7c1-1.2,2-2.4,3-3.5,1-1.2,2.1-2.3,3.2-3.4,1.1-1.1,2.2-2.2,3.4-3.2,1.2-1,2.3-2.1,3.5-3s2.4-1.9,3.7-2.9c1.2-.9,2.5-1.8,3.8-2.7,1.3-.9,2.6-1.7,3.9-2.5,1.3-.8,2.7-1.6,4.1-2.3,1.4-.7,2.8-1.4,4.2-2.1,1.4-.7,2.8-1.3,4.3-1.9s2.9-1.2,4.3-1.7c1.5-.5,2.9-1,4.4-1.5,1.5-.5,3-.9,4.5-1.2,1.5-.4,3-.7,4.5-1s3.1-.6,4.6-.8,3.1-.4,4.6-.6c1.5-.2,3.1-.3,4.6-.3s3.1-.1,4.7-.1Z"/>
        <path class="cls-1" d="M96.2,7.4c1.5,0,2.9,0,4.4.1,1.5,0,2.9.2,4.3.3s2.9.3,4.3.5c1.4.2,2.9.5,4.3.7,1.4.3,2.8.6,4.2,1,1.4.4,2.8.7,4.2,1.2,1.4.4,2.8.9,4.1,1.4,1.4.5,2.7,1,4.1,1.6,1.3.6,2.7,1.1,4,1.8s2.6,1.3,3.9,2c1.3.7,2.5,1.4,3.8,2.1,1.2.7,2.5,1.5,3.7,2.3,1.2.8,2.4,1.6,3.6,2.5,1.2.9,2.3,1.8,3.4,2.7,1.1.9,2.2,1.9,3.3,2.8,1.1,1,2.1,2,3.2,3,1,1,2,2.1,3,3.2,1,1.1,1.9,2.2,2.8,3.3.9,1.1,1.8,2.3,2.7,3.4.9,1.2,1.7,2.4,2.5,3.6.8,1.2,1.6,2.4,2.3,3.7.7,1.2,1.5,2.5,2.1,3.8.7,1.3,1.3,2.6,2,3.9.6,1.3,1.2,2.6,1.8,4,.6,1.3,1.1,2.7,1.6,4.1.5,1.4.9,2.7,1.4,4.1.4,1.4.8,2.8,1.2,4.2.4,1.4.7,2.8,1,4.2.3,1.4.5,2.9.7,4.3.2,1.4.4,2.9.5,4.3.1,1.4.2,2.9.3,4.3,0,1.5.1,2.9.1,4.4s0,2.9-.1,4.4c0,1.5-.2,2.9-.3,4.3-.1,1.4-.3,2.9-.5,4.3-.2,1.4-.5,2.9-.7,4.3-.3,1.4-.6,2.8-1,4.2-.4,1.4-.7,2.8-1.2,4.2-.4,1.4-.9,2.8-1.4,4.1-.5,1.4-1,2.7-1.6,4.1-.6,1.3-1.1,2.7-1.8,4-.6,1.3-1.3,2.6-2,3.9-.7,1.3-1.4,2.5-2.1,3.8s-1.5,2.5-2.3,3.7c-.8,1.2-1.6,2.4-2.5,3.6-.9,1.2-1.8,2.3-2.7,3.4s-1.9,2.2-2.8,3.3c-1,1.1-2,2.1-3,3.2-1,1-2.1,2-3.2,3-1.1,1-2.2,1.9-3.3,2.8-1.1.9-2.3,1.8-3.4,2.7-1.2.9-2.4,1.7-3.6,2.5-1.2.8-2.4,1.6-3.7,2.3-1.2.7-2.5,1.5-3.8,2.1-1.3.7-2.6,1.3-3.9,2-1.3.6-2.6,1.2-4,1.8-1.3.6-2.7,1.1-4.1,1.6s-2.7.9-4.1,1.4c-1.4.4-2.8.8-4.2,1.2-1.4.4-2.8.7-4.2,1-1.4.3-2.9.5-4.3.7-1.4.2-2.9.4-4.3.5-1.4.1-2.9.2-4.3.3-1.5,0-2.9.1-4.4.1-1.5,0-2.9,0-4.4-.1-1.5,0-2.9-.2-4.3-.3-1.4-.1-2.9-.3-4.3-.5-1.4-.2-2.9-.5-4.3-.7-1.4-.3-2.8-.6-4.2-1-1.4-.4-2.8-.7-4.2-1.2-1.4-.4-2.8-.9-4.1-1.4-1.4-.5-2.7-1-4.1-1.6s-2.7-1.1-4-1.8c-1.3-.6-2.6-1.3-3.9-2s-2.5-1.4-3.8-2.1c-1.2-.7-2.5-1.5-3.7-2.3-1.2-.8-2.4-1.6-3.6-2.5-1.2-.9-2.3-1.8-3.4-2.7-1.1-.9-2.2-1.9-3.3-2.8-1.1-1-2.1-2-3.2-3-1-1-2-2.1-3-3.2-1-1.1-1.9-2.2-2.8-3.3-.9-1.1-1.8-2.3-2.7-3.4-.9-1.2-1.7-2.4-2.5-3.6s-1.6-2.4-2.3-3.7c-.7-1.2-1.5-2.5-2.1-3.8-.7-1.3-1.3-2.6-2-3.9-.6-1.3-1.2-2.6-1.8-4-.6-1.3-1.1-2.7-1.6-4.1-.5-1.4-.9-2.7-1.4-4.1-.4-1.4-.8-2.8-1.2-4.2-.4-1.4-.7-2.8-1-4.2-.3-1.4-.5-2.9-.7-4.3-.2-1.4-.4-2.9-.5-4.3s-.2-2.9-.3-4.3c0-1.5-.1-2.9-.1-4.4s0-2.9.1-4.4c0-1.5.2-2.9.3-4.3.1-1.4.3-2.9.5-4.3.2-1.4.5-2.9.7-4.3.3-1.4.6-2.8,1-4.2.4-1.4.7-2.8,1.2-4.2s.9-2.8,1.4-4.1c.5-1.4,1-2.7,1.6-4.1.6-1.3,1.1-2.7,1.8-4s1.3-2.6,2-3.9c.7-1.3,1.4-2.5,2.1-3.8.7-1.2,1.5-2.5,2.3-3.7s1.6-2.4,2.5-3.6c.9-1.2,1.8-2.3,2.7-3.4.9-1.1,1.9-2.2,2.8-3.3,1-1.1,2-2.1,3-3.2,1-1,2.1-2,3.2-3,1.1-1,2.2-1.9,3.3-2.8,1.1-.9,2.3-1.8,3.4-2.7,1.2-.9,2.4-1.7,3.6-2.5,1.2-.8,2.4-1.6,3.7-2.3s2.5-1.5,3.8-2.1,2.6-1.3,3.9-2,2.6-1.2,4-1.8,2.7-1.1,4.1-1.6c1.4-.5,2.7-.9,4.1-1.4,1.4-.4,2.8-.8,4.2-1.2,1.4-.4,2.8-.7,4.2-1,1.4-.3,2.9-.5,4.3-.7,1.4-.2,2.9-.4,4.3-.5,1.4-.1,2.9-.2,4.3-.3,1.5,0,2.9-.1,4.4-.1Z"/>
        <circle cx="96.2" cy="96.2" r="88"/>
        <path class="cls-4" d="M82.3,96.2c0,7.7,6.2,13.9,13.9,13.9s13.9-6.2,13.9-13.9-6.2-13.9-13.9-13.9-13.9,6.2-13.9,13.9ZM82.2,96.2c0-7.7,6.3-14.1,14.1-14.1s14.1,6.3,14.1,14.1-6.3,14.1-14.1,14.1-14.1-6.3-14.1-14.1ZM79.3,96.2c0,9.3,7.6,16.9,16.9,16.9s16.9-7.6,16.9-16.9-7.6-16.9-16.9-16.9-16.9,7.6-16.9,16.9ZM79.2,96.2c0-9.4,7.7-17.1,17.1-17.1s17.1,7.7,17.1,17.1-7.7,17.1-17.1,17.1-17.1-7.7-17.1-17.1ZM76.4,96.2c0,10.9,8.9,19.8,19.8,19.8s19.8-8.9,19.8-19.8-8.9-19.8-19.8-19.8-19.8,8.9-19.8,19.8ZM76.2,96.2c0-11.1,9-20.1,20.1-20.1s20.1,9,20.1,20.1-9,20.1-20.1,20.1-20.1-9-20.1-20.1ZM73.4,96.2c0,12.6,10.2,22.8,22.8,22.8s22.8-10.2,22.8-22.8-10.2-22.8-22.8-22.8-22.8,10.2-22.8,22.8ZM73.2,96.2c0-12.7,10.3-23.1,23.1-23.1s23.1,10.3,23.1,23.1-10.3,23.1-23.1,23.1-23.1-10.3-23.1-23.1ZM70.4,96.2c0,14.2,11.6,25.8,25.8,25.8s25.8-11.6,25.8-25.8-11.6-25.8-25.8-25.8-25.8,11.6-25.8,25.8ZM70.2,96.2c0-14.4,11.7-26.1,26.1-26.1s26.1,11.7,26.1,26.1-11.7,26.1-26.1,26.1-26.1-11.7-26.1-26.1ZM67.5,96.2c0,15.9,12.9,28.7,28.7,28.7s28.7-12.9,28.7-28.7-12.9-28.7-28.7-28.7-28.7,12.9-28.7,28.7ZM67.2,96.2c0-16,13-29.1,29.1-29.1s29.1,13,29.1,29.1-13,29.1-29.1,29.1-29.1-13-29.1-29.1ZM64.5,96.2c0,17.5,14.2,31.7,31.7,31.7s31.7-14.2,31.7-31.7-14.2-31.7-31.7-31.7-31.7,14.2-31.7,31.7ZM64.2,96.2c0-17.7,14.4-32.1,32.1-32.1s32.1,14.4,32.1,32.1-14.4,32.1-32.1,32.1-32.1-14.4-32.1-32.1ZM61.5,96.2c0,19.1,15.6,34.7,34.7,34.7s34.7-15.6,34.7-34.7-15.6-34.7-34.7-34.7-34.7,15.6-34.7,34.7ZM61.2,96.2c0-19.3,15.7-35.1,35.1-35.1s35.1,15.7,35.1,35.1-15.7,35.1-35.1,35.1-35.1-15.7-35.1-35.1ZM58.6,96.2c0,20.8,16.9,37.7,37.7,37.7s37.7-16.9,37.7-37.7-16.9-37.7-37.7-37.7-37.7,16.9-37.7,37.7ZM58.2,96.2c0-21,17.1-38.1,38.1-38.1s38.1,17.1,38.1,38.1-17.1,38.1-38.1,38.1-38.1-17.1-38.1-38.1ZM55.6,96.2c0,22.4,18.2,40.6,40.6,40.6s40.6-18.2,40.6-40.6-18.2-40.6-40.6-40.6-40.6,18.2-40.6,40.6ZM55.2,96.2c0-22.6,18.4-41.1,41.1-41.1s41.1,18.4,41.1,41.1-18.4,41.1-41.1,41.1-41.1-18.4-41.1-41.1ZM52.6,96.2c0,24,19.6,43.6,43.6,43.6s43.6-19.6,43.6-43.6-19.6-43.6-43.6-43.6-43.6,19.6-43.6,43.6ZM52.2,96.2c0-24.3,19.8-44.1,44.1-44.1s44.1,19.8,44.1,44.1-19.8,44.1-44.1,44.1-44.1-19.8-44.1-44.1ZM49.7,96.2c0,25.7,20.9,46.6,46.6,46.6s46.6-20.9,46.6-46.6-20.9-46.6-46.6-46.6-46.6,20.9-46.6,46.6ZM49.2,96.2c0-25.9,21.1-47.1,47.1-47.1s47.1,21.1,47.1,47.1-21.1,47.1-47.1,47.1-47.1-21.1-47.1-47.1ZM46.7,96.2c0,27.3,22.2,49.5,49.5,49.5s49.5-22.2,49.5-49.5-22.2-49.5-49.5-49.5-49.5,22.2-49.5,49.5ZM46.2,96.2c0-27.6,22.5-50.1,50.1-50.1s50.1,22.5,50.1,50.1-22.5,50.1-50.1,50.1-50.1-22.5-50.1-50.1ZM43.7,96.2c0,28.9,23.5,52.5,52.5,52.5s52.5-23.5,52.5-52.5-23.5-52.5-52.5-52.5-52.5,23.5-52.5,52.5ZM43.2,96.2c0-29.3,23.8-53.1,53.1-53.1s53.1,23.8,53.1,53.1-23.8,53.1-53.1,53.1-53.1-23.8-53.1-53.1ZM40.8,96.2c0,30.6,24.9,55.5,55.5,55.5s55.5-24.9,55.5-55.5-24.9-55.5-55.5-55.5-55.5,24.9-55.5,55.5ZM40.2,96.2c0-30.9,25.1-56.1,56.1-56.1s56.1,25.1,56.1,56.1-25.1,56.1-56.1,56.1-56.1-25.1-56.1-56.1ZM37.8,96.2c0,32.2,26.2,58.4,58.4,58.4s58.4-26.2,58.4-58.4-26.2-58.4-58.4-58.4-58.4,26.2-58.4,58.4ZM37.2,96.2c0-32.6,26.5-59.1,59.1-59.1s59.1,26.5,59.1,59.1-26.5,59.1-59.1,59.1-59.1-26.5-59.1-59.1ZM34.8,96.2c0,33.9,27.5,61.4,61.4,61.4s61.4-27.5,61.4-61.4-27.5-61.4-61.4-61.4-61.4,27.5-61.4,61.4ZM34.2,96.2c0-34.2,27.8-62.1,62.1-62.1s62.1,27.8,62.1,62.1-27.8,62.1-62.1,62.1-62.1-27.8-62.1-62.1ZM31.9,96.2c0,35.5,28.9,64.4,64.4,64.4s64.4-28.9,64.4-64.4S131.7,31.9,96.2,31.9,31.9,60.7,31.9,96.2ZM31.2,96.2c0-35.9,29.2-65.1,65.1-65.1s65.1,29.2,65.1,65.1-29.2,65.1-65.1,65.1S31.2,132.1,31.2,96.2ZM28.9,96.2c0,37.1,30.2,67.3,67.3,67.3s67.3-30.2,67.3-67.3S133.4,28.9,96.2,28.9,28.9,59.1,28.9,96.2ZM28.2,96.2c0-37.5,30.5-68.1,68.1-68.1s68.1,30.5,68.1,68.1-30.5,68.1-68.1,68.1S28.2,133.8,28.2,96.2ZM25.9,96.2c0,38.8,31.5,70.3,70.3,70.3s70.3-31.5,70.3-70.3S135,25.9,96.2,25.9,25.9,57.5,25.9,96.2ZM25.2,96.2c0-39.2,31.9-71.1,71.1-71.1s71.1,31.9,71.1,71.1-31.9,71.1-71.1,71.1S25.2,135.4,25.2,96.2ZM88.2,174.4c2.8.3,5.6.5,8.5.5h0c1.1,0,2,.8,2.1,1.9,1.5,0,3-.1,4.4-.2,0-1.1.8-2,1.9-2.1,2.8-.3,5.6-.8,8.4-1.4,1.1-.2,2.1.4,2.5,1.4,1.4-.4,2.9-.8,4.3-1.2-.2-1.1.4-2.1,1.4-2.5,2.7-.9,5.3-2,7.9-3.1,1-.5,2.2,0,2.7.8,1.3-.7,2.6-1.3,3.9-2.1-.4-1,0-2.1.8-2.7,2.4-1.5,4.8-3,7-4.8.9-.7,2.1-.6,2.8.2,1.1-.9,2.3-1.9,3.4-2.9-.6-.9-.5-2.1.2-2.8,2-1.9,4-4,5.8-6.1.7-.8,1.9-1,2.8-.4.9-1.1,1.8-2.3,2.7-3.5-.8-.7-1-1.9-.4-2.8,1.6-2.3,3.1-4.8,4.4-7.2.5-1,1.7-1.4,2.7-1,.7-1.3,1.3-2.7,1.9-4-1-.5-1.4-1.7-1-2.7,1-2.6,2-5.3,2.7-8,.3-1.1,1.4-1.7,2.4-1.5.4-1.7.8-3.4,1.1-5.1-.2,0-.3,0-.5-.2-.8-.4-1.3-1.3-1.1-2.2.4-2.8.7-5.6.8-8.4,0-1.1,1-2.1,2.1-2.1,0-.5,0-1,0-1.5,0-1,0-1.9,0-2.9,0,0,0,0-.1,0-.3,0-.7,0-1-.2-.6-.3-1.1-1-1.2-1.8-.2-2.8-.6-5.6-1.1-8.4-.2-1.2.6-2.3,1.7-2.5,0,0,0,0,0,0-.3-1.3-.5-2.5-.8-3.8-.1,0-.3,0-.4,0s0,0-.1,0c-.9,0-1.7-.7-1.9-1.6-.8-2.7-1.7-5.4-2.7-8-.4-1,0-2.2,1-2.7-.6-1.4-1.2-2.7-1.9-4-.3.1-.6.2-.8.2s0,0-.1,0c-.7,0-1.4-.4-1.8-1.1-1.3-2.5-2.8-4.9-4.4-7.2-.6-.9-.4-2.2.4-2.9-.9-1.2-1.8-2.4-2.7-3.5-.4.3-.8.4-1.2.4s0,0-.1,0c-.6,0-1.1-.3-1.5-.7-1.8-2.1-3.8-4.2-5.8-6.1-.8-.8-.9-2-.2-2.9-1.1-1-2.2-1.9-3.4-2.9-.4.5-1,.7-1.6.7s0,0-.1,0c-.4,0-.8-.2-1.2-.4-2.2-1.7-4.6-3.3-7-4.7-1-.6-1.3-1.8-.8-2.8-1.3-.7-2.6-1.4-3.9-2.1-.4.7-1.1,1.1-1.9,1.1s0,0-.1,0c-.3,0-.5,0-.8-.2-2.6-1.2-5.2-2.2-7.9-3.1-1.1-.4-1.7-1.5-1.4-2.6-1.4-.4-2.8-.8-4.3-1.2-.3.9-1.1,1.6-2.1,1.6,0,0,0,0-.1,0-.1,0-.2,0-.3,0-2.7-.6-5.6-1-8.4-1.3-1.1-.1-2-1.1-1.9-2.2-1.5-.1-2.9-.2-4.4-.2,0,1.1-1,2-2.1,2-2.8,0-5.7.2-8.5.5,0,0-.2,0-.2,0s0,0-.1,0c-1,0-1.8-.8-2-1.8-1.5.2-2.9.4-4.3.7.2,1.1-.6,2.2-1.7,2.4-2.7.6-5.5,1.4-8.2,2.3-.2,0-.5.1-.7.1s0,0-.1,0c-.8,0-1.5-.5-1.9-1.3-1.4.5-2.7,1.1-4.1,1.6.4,1,0,2.2-1.1,2.7-2.5,1.2-5.1,2.5-7.5,4-.3.2-.7.3-1.1.3s0,0-.1,0c-.6,0-1.2-.3-1.6-.9-1.2.8-2.5,1.6-3.6,2.5.6.9.4,2.2-.5,2.9-2.2,1.7-4.4,3.6-6.4,5.5-.4.4-.9.6-1.5.6s0,0-.1,0c-.5,0-.9-.2-1.3-.5-1,1-2.1,2.1-3,3.2.8.8.8,2,.1,2.9-1.8,2.1-3.5,4.4-5.1,6.7-.4.6-1.1.9-1.8.9s0,0-.1,0c-.3,0-.6-.1-.9-.3-.8,1.2-1.6,2.5-2.3,3.8.9.6,1.3,1.8.7,2.8-1.3,2.5-2.5,5.1-3.5,7.7-.3.8-1.1,1.3-2,1.3s0,0-.1,0c-.2,0-.3,0-.5,0-.5,1.4-1,2.8-1.4,4.2,1,.4,1.6,1.5,1.3,2.6-.7,2.7-1.4,5.5-1.8,8.3-.2,1.1-1.1,1.8-2.1,1.8s0,0-.1,0c0,0,0,0,0,0-.2,1.5-.4,2.9-.5,4.4,1.1.2,1.9,1.1,1.9,2.2-.2,2.8-.2,5.7,0,8.5,0,1.1-.8,2.1-1.8,2.2.1,1.5.3,2.9.5,4.4,1.1,0,2.1.7,2.3,1.8.5,2.8,1.1,5.6,1.8,8.3.3,1.1-.3,2.2-1.3,2.6.4,1.4.9,2.8,1.4,4.2,1-.3,2.2.2,2.6,1.3,1,2.6,2.2,5.2,3.6,7.7.5,1,.2,2.2-.7,2.8.7,1.3,1.5,2.5,2.3,3.8,1-.5,2.2-.2,2.8.7,1.6,2.3,3.3,4.6,5.1,6.7.7.8.7,2.1,0,2.8,1,1.1,2,2.2,3,3.2.8-.7,2-.7,2.8,0,2,1.9,4.2,3.8,6.4,5.5.9.7,1.1,1.9.6,2.8,1.2.9,2.4,1.7,3.7,2.5.7-.8,1.9-1.1,2.8-.5,2.4,1.5,4.9,2.8,7.5,4,1,.5,1.5,1.6,1.1,2.6,1.3.6,2.7,1.1,4.1,1.6.5-1,1.6-1.5,2.6-1.1,2.7.9,5.4,1.7,8.2,2.3,1.1.2,1.8,1.2,1.7,2.3,1.4.3,2.9.5,4.4.7.2-1,1.1-1.7,2.1-1.7,0,0,.2,0,.2,0ZM92.1,179c-1.5,0-2.9-.2-4.4-.4-1-.1-1.7-.8-1.9-1.7-1.5-.2-3.1-.5-4.6-.8-.4.7-1.1,1.1-1.9,1.1s0,0-.1,0c-.1,0-.2,0-.3,0-2.9-.6-5.8-1.4-8.6-2.4-.9-.3-1.5-1.2-1.5-2.1-1.5-.5-2.9-1.1-4.3-1.7-.4.5-1,.7-1.6.7s0,0-.1,0c-.3,0-.5,0-.8-.2-2.7-1.2-5.3-2.7-7.9-4.2-.8-.5-1.2-1.5-1-2.4-1.3-.8-2.6-1.7-3.8-2.6-.4.3-.8.4-1.3.4s0,0-.1,0c-.4,0-.8-.2-1.2-.4-2.4-1.8-4.6-3.7-6.8-5.8-.7-.7-.9-1.7-.4-2.5-1.1-1.1-2.2-2.2-3.2-3.4-.3.1-.6.2-.9.2s0,0-.1,0c-.6,0-1.1-.3-1.5-.8-1.9-2.3-3.7-4.6-5.4-7.1-.5-.8-.5-1.8.1-2.5-.8-1.3-1.6-2.6-2.4-4-.1,0-.3,0-.4,0s0,0-.1,0c-.7,0-1.4-.4-1.8-1.1-1.4-2.6-2.7-5.3-3.8-8.1-.4-.9,0-1.9.6-2.5-.5-1.5-1-2.9-1.5-4.4,0,0,0,0,0,0-.9,0-1.7-.7-1.9-1.6-.8-2.9-1.4-5.8-1.9-8.7-.2-.9.3-1.8,1.1-2.2-.2-1.5-.4-3.1-.5-4.7-.9-.2-1.5-1-1.6-2-.2-3-.2-6,0-8.9,0-.9.7-1.7,1.6-1.9.1-1.6.3-3.1.5-4.7-.8-.4-1.3-1.3-1.1-2.2.5-2.9,1.1-5.9,1.9-8.7.2-.9,1-1.5,1.9-1.6.5-1.5,1-3,1.5-4.5-.7-.6-1-1.5-.6-2.4,1.1-2.8,2.3-5.5,3.7-8.1.4-.8,1.4-1.3,2.3-1.1.8-1.4,1.6-2.7,2.4-4-.6-.7-.6-1.7,0-2.5,1.7-2.5,3.5-4.8,5.4-7.1.6-.7,1.6-.9,2.4-.6,1-1.2,2.1-2.3,3.2-3.4-.4-.8-.2-1.8.5-2.5,2.2-2,4.4-4,6.8-5.8.7-.6,1.8-.6,2.5,0,1.3-.9,2.6-1.8,3.9-2.7-.2-.9.2-1.8,1-2.3,2.5-1.5,5.2-3,7.9-4.2.8-.4,1.8-.2,2.4.5,1.4-.6,2.9-1.2,4.4-1.8,0-.9.6-1.7,1.5-2,2.8-1,5.7-1.8,8.6-2.4.9-.2,1.8.2,2.3,1,1.5-.3,3.1-.6,4.7-.8.2-.9.9-1.5,1.9-1.6,2.9-.3,5.9-.5,8.9-.5.9,0,1.7.6,2,1.4,1.6,0,3.2.1,4.7.2.4-.8,1.2-1.3,2.2-1.2,3,.3,5.9.8,8.8,1.4.9.2,1.6.9,1.7,1.8,1.5.4,3.1.8,4.6,1.3.5-.7,1.5-1,2.4-.7,2.8.9,5.6,2,8.3,3.3.9.4,1.3,1.3,1.2,2.2,1.4.7,2.8,1.4,4.2,2.2.7-.6,1.7-.7,2.5-.2,2.5,1.5,5,3.2,7.4,5,.8.6,1,1.5.7,2.4,1.2,1,2.4,2,3.6,3,.8-.4,1.8-.3,2.5.3,2.2,2,4.2,4.2,6.2,6.5.6.7.7,1.7.2,2.5,1,1.2,1.9,2.5,2.9,3.7.9-.3,1.8,0,2.4.9,1.7,2.5,3.2,5,4.6,7.6.4.8.3,1.8-.3,2.5.7,1.4,1.4,2.8,2,4.3.9,0,1.8.5,2.1,1.3,1.1,2.8,2.1,5.6,2.9,8.5.3.9-.1,1.9-.9,2.4.3,1.4.7,2.7.9,4.1.8.2,1.4.8,1.5,1.7.5,2.9.9,5.9,1.1,8.9,0,.9-.4,1.7-1.2,2.1,0,1,0,2.1,0,3.1s0,1.1,0,1.7c.8.3,1.3,1.1,1.3,2-.1,3-.4,6-.8,8.9-.1.9-.9,1.6-1.8,1.8-.3,1.8-.7,3.6-1.2,5.4.8.5,1.1,1.4.9,2.4-.8,2.9-1.8,5.7-2.9,8.5-.3.8-1.1,1.3-2,1.3s0,0-.1,0c0,0,0,0,0,0-.6,1.4-1.3,2.8-2,4.2.7.6.8,1.7.4,2.5-1.4,2.6-2.9,5.2-4.6,7.6-.4.6-1.1.9-1.8.9,0,0,0,0-.1,0-.2,0-.4,0-.5-.1-.9,1.3-1.9,2.5-2.8,3.7.5.8.5,1.8-.2,2.6-1.9,2.3-4,4.4-6.1,6.5-.4.4-.9.6-1.5.6s0,0-.1,0c-.3,0-.7-.1-1-.3-1.2,1-2.3,2-3.5,3,.3.9,0,1.9-.7,2.5-2.4,1.8-4.8,3.5-7.4,5-.4.2-.7.3-1.1.3s0,0-.1,0c-.5,0-1-.2-1.3-.6-1.3.8-2.7,1.5-4.1,2.2.1.9-.3,1.9-1.2,2.3-2.7,1.2-5.5,2.4-8.3,3.3-.2,0-.4.1-.7.1s0,0-.1,0c-.7,0-1.3-.4-1.6-.9-1.5.5-3,.9-4.5,1.2,0,.9-.7,1.7-1.7,1.9-2.9.6-5.9,1.1-8.8,1.4,0,0-.2,0-.2,0s0,0-.1,0c-.8,0-1.5-.6-1.8-1.3-1.5.1-3.1.2-4.7.3-.3.9-1.1,1.5-2.1,1.5-1.5,0-3,0-4.5-.1Z"/>
        <circle class="cls-7" cx="96.2" cy="96.2" r="75"/>
        <path class="cls-6" d="M144.2,74.4c0-16.1-13.1-29.2-29.2-29.2h-1.4l1.6-1.9-2.7-2.2-3.4,4.1h-5.2l3.7-4.4-2.7-2.2-5.6,6.6h-39.1v14h53.7c8.4,0,15.2,6.8,15.2,15.2s-6.8,15.2-15.2,15.2h-9.3v-22.4h-14v22.4h-16.3v-22.4h-14v22.4h0v14h0v21.9h14v-21.9h16.3v21.9h14v-21.9h9.3c8.4,0,15.2,6.8,15.2,15.2s-6.8,15.2-15.2,15.2h-53.7v14h25l-3,3.6,2.7,2.2,4.9-5.9h7.9l-2,2.4,2.7,2.2,3.9-4.6h12.8c16.1,0,29.2-13.1,29.2-29.2s-4-16.8-10.2-22.2c6.3-5.3,10.2-13.3,10.2-22.2"/>
        <path class="cls-5" d="M83.5,151.4l1.1,1,4.6-5.4h10.5l-2.7,3.3,1.1,1,3.5-4.2h13.3c3.8,0,7.5-.7,11-2.2,3.4-1.4,6.4-3.4,9-6s4.6-5.6,6-9c1.5-3.5,2.2-7.2,2.2-11s-.9-8.2-2.7-12c-1.7-3.6-4.2-6.8-7.2-9.4l-.9-.8.9-.8c3-2.6,5.5-5.8,7.2-9.4,1.8-3.8,2.7-7.8,2.7-12s-.7-7.5-2.2-11c-1.4-3.4-3.4-6.4-6-9s-5.6-4.6-9-6c-3.5-1.5-7.2-2.2-11-2.2h-3.5l2.3-2.7-1.1-1-3.1,3.7h-7.8l4.4-5.3-1.1-1-5.2,6.2h-38.6v12h52.7c4.3,0,8.4,1.7,11.4,4.7,3.1,3.1,4.7,7.1,4.7,11.4s-1.7,8.4-4.7,11.4c-3.1,3.1-7.1,4.7-11.4,4.7h-10.3v-22.4h-12v22.4h-18.3v-22.4h-12v56.3h12v-21.9h18.3v21.9h12v-21.9h10.3c4.3,0,8.4,1.7,11.4,4.7,3.1,3.1,4.7,7.1,4.7,11.4s-1.7,8.4-4.7,11.4c-3.1,3.1-7.1,4.7-11.4,4.7h-52.7v12h26.1l-3.8,4.5ZM84.9,155.2l-4.2-3.5,2.3-2.7h-23.8v-16h54.7c3.8,0,7.3-1.5,10-4.1,2.7-2.7,4.1-6.2,4.1-10s-1.5-7.3-4.1-10c-2.7-2.7-6.2-4.1-10-4.1h-8.3v21.9h-16v-21.9h-14.3v21.9h-16v-60.3h16v22.4h14.3v-22.4h16v22.4h8.3c3.8,0,7.3-1.5,10-4.1,2.7-2.7,4.1-6.2,4.1-10s-1.5-7.3-4.1-10c-2.7-2.7-6.2-4.1-10-4.1h-54.7v-16h39.6l5.9-7,4.2,3.5-2.9,3.5h2.6l3.8-4.5,4.2,3.5-.8,1c3.8,0,7.5.9,11,2.4,3.6,1.5,6.8,3.7,9.6,6.5,2.8,2.8,4.9,6,6.5,9.6,1.6,3.7,2.4,7.7,2.4,11.7s-1,8.8-2.9,12.8c-1.7,3.5-4,6.7-6.9,9.3,2.9,2.6,5.2,5.8,6.9,9.3,1.9,4,2.9,8.4,2.9,12.8s-.8,8-2.4,11.7c-1.5,3.6-3.7,6.8-6.5,9.6-2.8,2.8-6,4.9-9.6,6.5-3.7,1.6-7.7,2.4-11.7,2.4h-12.3l-4.2,5-4.2-3.5,1.3-1.5h-5.3l-5.3,6.3Z"/>
      </g>
    </g>
  </g>
</svg>